<?xml version="1.0" encoding="UTF-8" standalone="no"?>
<!DOCTYPE svg PUBLIC "-//W3C//DTD SVG 1.1//EN"
 "http://www.w3.org/Graphics/SVG/1.1/DTD/svg11.dtd">
<!-- Generated by graphviz version 2.43.0 (0)
 -->
<!-- Title: dependency&#45;cruiser output Pages: 1 -->
<svg width="570pt" height="549pt"
 viewBox="0.00 0.00 570.00 548.79" xmlns="http://www.w3.org/2000/svg" xmlns:xlink="http://www.w3.org/1999/xlink">
<g id="graph0" class="graph" transform="scale(1 1) rotate(0) translate(4 544.79)">
<title>dependency&#45;cruiser output</title>
<polygon fill="white" stroke="transparent" points="-4,4 -4,-544.79 566,-544.79 566,4 -4,4"/>
<g id="clust1" class="cluster">
<title>cluster_src</title>
<path fill="#ffffff" stroke="black" stroke-width="2" d="M20,-99.56C20,-99.56 488,-99.56 488,-99.56 494,-99.56 500,-105.56 500,-111.56 500,-111.56 500,-331.56 500,-331.56 500,-337.56 494,-343.56 488,-343.56 488,-343.56 20,-343.56 20,-343.56 14,-343.56 8,-337.56 8,-331.56 8,-331.56 8,-111.56 8,-111.56 8,-105.56 14,-99.56 20,-99.56"/>
<text text-anchor="middle" x="254" y="-332.36" font-family="Helvetica,sans-Serif" font-weight="bold" font-size="9.00">src</text>
</g>
<g id="clust2" class="cluster">
<title>cluster_src/notion&#45;open</title>
<path fill="#ffffff" stroke="black" stroke-width="2" d="M390,-129.56C390,-129.56 480,-129.56 480,-129.56 486,-129.56 492,-135.56 492,-141.56 492,-141.56 492,-169.56 492,-169.56 492,-175.56 486,-181.56 480,-181.56 480,-181.56 390,-181.56 390,-181.56 384,-181.56 378,-175.56 378,-169.56 378,-169.56 378,-141.56 378,-141.56 378,-135.56 384,-129.56 390,-129.56"/>
<text text-anchor="middle" x="435" y="-170.36" font-family="Helvetica,sans-Serif" font-weight="bold" font-size="9.00">notion&#45;open</text>
</g>
<!-- child_process -->
<g id="node1" class="node">
<title>child_process</title>
<path fill="#ffffcc" stroke="grey" d="M239,-91.56C239,-91.56 174,-91.56 174,-91.56 171,-91.56 168,-88.56 168,-85.56 168,-85.56 168,-79.56 168,-79.56 168,-76.56 171,-73.56 174,-73.56 174,-73.56 239,-73.56 239,-73.56 242,-73.56 245,-76.56 245,-79.56 245,-79.56 245,-85.56 245,-85.56 245,-88.56 242,-91.56 239,-91.56"/>
<text text-anchor="middle" x="206.5" y="-80.36" font-family="Helvetica,sans-Serif" font-size="9.00" fill="grey">child_process</text>
</g>
<!-- crypto -->
<g id="node2" class="node">
<title>crypto</title>
<path fill="#ffffcc" stroke="grey" d="M337,-369.56C337,-369.56 295,-369.56 295,-369.56 292,-369.56 289,-366.56 289,-363.56 289,-363.56 289,-357.56 289,-357.56 289,-354.56 292,-351.56 295,-351.56 295,-351.56 337,-351.56 337,-351.56 340,-351.56 343,-354.56 343,-357.56 343,-357.56 343,-363.56 343,-363.56 343,-366.56 340,-369.56 337,-369.56"/>
<text text-anchor="middle" x="316" y="-358.36" font-family="Helvetica,sans-Serif" font-size="9.00" fill="grey">crypto</text>
</g>
<!-- fs -->
<g id="node3" class="node">
<title>fs</title>
<path fill="#ffffcc" stroke="grey" d="M556,-71.56C556,-71.56 514,-71.56 514,-71.56 511,-71.56 508,-68.56 508,-65.56 508,-65.56 508,-59.56 508,-59.56 508,-56.56 511,-53.56 514,-53.56 514,-53.56 556,-53.56 556,-53.56 559,-53.56 562,-56.56 562,-59.56 562,-59.56 562,-65.56 562,-65.56 562,-68.56 559,-71.56 556,-71.56"/>
<text text-anchor="middle" x="535" y="-60.36" font-family="Helvetica,sans-Serif" font-size="9.00" fill="grey">fs</text>
</g>
<!-- path -->
<g id="node4" class="node">
<title>path</title>
<path fill="#ffffcc" stroke="grey" d="M556,-423.56C556,-423.56 514,-423.56 514,-423.56 511,-423.56 508,-420.56 508,-417.56 508,-417.56 508,-411.56 508,-411.56 508,-408.56 511,-405.56 514,-405.56 514,-405.56 556,-405.56 556,-405.56 559,-405.56 562,-408.56 562,-411.56 562,-411.56 562,-417.56 562,-417.56 562,-420.56 559,-423.56 556,-423.56"/>
<text text-anchor="middle" x="535" y="-412.36" font-family="Helvetica,sans-Serif" font-size="9.00" fill="grey">path</text>
</g>
<!-- src/cache.ts -->
<g id="node5" class="node">
<title>src/cache.ts</title>
<g id="a_node5"><a xlink:href="https://github.com/dragonman225/notablog/tree/master/src/cache.ts" xlink:title="cache.ts">
<path fill="#ddfeff" stroke="black" d="M228,-303.56C228,-303.56 185,-303.56 185,-303.56 182,-303.56 179,-300.56 179,-297.56 179,-297.56 179,-291.56 179,-291.56 179,-288.56 182,-285.56 185,-285.56 185,-285.56 228,-285.56 228,-285.56 231,-285.56 234,-288.56 234,-291.56 234,-291.56 234,-297.56 234,-297.56 234,-300.56 231,-303.56 228,-303.56"/>
<text text-anchor="middle" x="206.5" y="-292.36" font-family="Helvetica,sans-Serif" font-size="9.00">cache.ts</text>
</a>
</g>
</g>
<!-- src/cache.ts&#45;&gt;crypto -->
<g id="edge2" class="edge">
<title>src/cache.ts&#45;&gt;crypto</title>
<path fill="none" stroke="#000000" stroke-dasharray="5,2" stroke-opacity="0.200000" d="M214.58,-303.73C224.1,-315.42 242.14,-335.45 262,-346.56 268.42,-350.15 275.8,-352.86 282.98,-354.87"/>
<polygon fill="#000000" fill-opacity="0.200000" stroke="#000000" stroke-opacity="0.200000" points="282.59,-356.94 288.93,-356.41 283.64,-352.88 282.59,-356.94"/>
</g>
<!-- src/cache.ts&#45;&gt;fs -->
<g id="edge3" class="edge">
<title>src/cache.ts&#45;&gt;fs</title>
<path fill="none" stroke="#000000" stroke-dasharray="5,2" stroke-opacity="0.200000" d="M234.13,-289.97C239.86,-287.74 245.3,-284.45 249,-279.56 272.95,-247.95 234.95,-130.56 262,-101.56 293.92,-67.34 436.64,-62.67 501.61,-62.35"/>
<polygon fill="#000000" fill-opacity="0.200000" stroke="#000000" stroke-opacity="0.200000" points="501.65,-64.45 507.64,-62.33 501.64,-60.25 501.65,-64.45"/>
</g>
<!-- src/cache.ts&#45;&gt;path -->
<g id="edge4" class="edge">
<title>src/cache.ts&#45;&gt;path</title>
<path fill="none" stroke="#000000" stroke-dasharray="5,2" stroke-opacity="0.200000" d="M210.74,-303.7C217.39,-320.96 234.29,-358.17 262,-375.56 337.48,-422.93 447.63,-421.94 501.67,-417.94"/>
<polygon fill="#000000" fill-opacity="0.200000" stroke="#000000" stroke-opacity="0.200000" points="501.84,-420.03 507.66,-417.46 501.51,-415.84 501.84,-420.03"/>
</g>
<!-- src/utils.ts -->
<g id="node6" class="node">
<title>src/utils.ts</title>
<g id="a_node6"><a xlink:href="https://github.com/dragonman225/notablog/tree/master/src/utils.ts" xlink:title="utils.ts">
<path fill="#ddfeff" stroke="black" d="M456,-252.56C456,-252.56 414,-252.56 414,-252.56 411,-252.56 408,-249.56 408,-246.56 408,-246.56 408,-240.56 408,-240.56 408,-237.56 411,-234.56 414,-234.56 414,-234.56 456,-234.56 456,-234.56 459,-234.56 462,-237.56 462,-240.56 462,-240.56 462,-246.56 462,-246.56 462,-249.56 459,-252.56 456,-252.56"/>
<text text-anchor="middle" x="435" y="-241.36" font-family="Helvetica,sans-Serif" font-size="9.00">utils.ts</text>
</a>
</g>
</g>
<!-- src/cache.ts&#45;&gt;src/utils.ts -->
<g id="edge1" class="edge">
<title>src/cache.ts&#45;&gt;src/utils.ts</title>
<path fill="none" stroke="#000000" stroke-width="2" stroke-opacity="0.200000" d="M234.23,-291.08C266.66,-286.57 322.84,-277.8 370,-265.56 381.51,-262.57 393.93,-258.51 404.74,-254.68"/>
<polygon fill="#000000" fill-opacity="0.200000" stroke="#000000" stroke-width="2" stroke-opacity="0.200000" points="405.62,-256.6 410.56,-252.59 404.2,-252.65 405.62,-256.6"/>
</g>
<!-- src/utils.ts&#45;&gt;fs -->
<g id="edge40" class="edge">
<title>src/utils.ts&#45;&gt;fs</title>
<path fill="none" stroke="#000000" stroke-dasharray="5,2" stroke-opacity="0.200000" d="M462.22,-237.21C475.4,-232.71 490.54,-225.33 500,-213.56 532.55,-173.06 535.33,-107.59 534.74,-77.98"/>
<polygon fill="#000000" fill-opacity="0.200000" stroke="#000000" stroke-opacity="0.200000" points="536.83,-77.84 534.56,-71.9 532.63,-77.96 536.83,-77.84"/>
</g>
<!-- src/utils.ts&#45;&gt;path -->
<g id="edge41" class="edge">
<title>src/utils.ts&#45;&gt;path</title>
<path fill="none" stroke="#000000" stroke-dasharray="5,2" stroke-opacity="0.200000" d="M449.77,-252.59C464.29,-262.81 486.87,-280.77 500,-301.56 519.82,-332.93 528.61,-376.48 532.06,-399.27"/>
<polygon fill="#000000" fill-opacity="0.200000" stroke="#000000" stroke-opacity="0.200000" points="530.01,-399.73 532.93,-405.38 534.16,-399.14 530.01,-399.73"/>
</g>
<!-- src/config.ts -->
<g id="node7" class="node">
<title>src/config.ts</title>
<g id="a_node7"><a xlink:href="https://github.com/dragonman225/notablog/tree/master/src/config.ts" xlink:title="config.ts">
<path fill="#ddfeff" stroke="black" d="M228.5,-273.56C228.5,-273.56 184.5,-273.56 184.5,-273.56 181.5,-273.56 178.5,-270.56 178.5,-267.56 178.5,-267.56 178.5,-261.56 178.5,-261.56 178.5,-258.56 181.5,-255.56 184.5,-255.56 184.5,-255.56 228.5,-255.56 228.5,-255.56 231.5,-255.56 234.5,-258.56 234.5,-261.56 234.5,-261.56 234.5,-267.56 234.5,-267.56 234.5,-270.56 231.5,-273.56 228.5,-273.56"/>
<text text-anchor="middle" x="206.5" y="-262.36" font-family="Helvetica,sans-Serif" font-size="9.00">config.ts</text>
</a>
</g>
</g>
<!-- src/config.ts&#45;&gt;fs -->
<g id="edge6" class="edge">
<title>src/config.ts&#45;&gt;fs</title>
<path fill="none" stroke="#000000" stroke-dasharray="5,2" stroke-opacity="0.200000" d="M227.46,-255.46C235.54,-250.71 244.09,-244.1 249,-235.56 266.45,-205.21 236.95,-103.02 262,-78.56 326.33,-15.75 445.08,-37.39 501.97,-52.7"/>
<polygon fill="#000000" fill-opacity="0.200000" stroke="#000000" stroke-opacity="0.200000" points="501.6,-54.78 507.94,-54.34 502.71,-50.73 501.6,-54.78"/>
</g>
<!-- src/config.ts&#45;&gt;src/utils.ts -->
<g id="edge5" class="edge">
<title>src/config.ts&#45;&gt;src/utils.ts</title>
<path fill="none" stroke="#000000" stroke-width="2" stroke-opacity="0.200000" d="M234.66,-265.15C267.04,-265.49 322.71,-264.91 370,-258.56 380.4,-257.16 391.58,-254.84 401.64,-252.43"/>
<polygon fill="#000000" fill-opacity="0.200000" stroke="#000000" stroke-width="2" stroke-opacity="0.200000" points="402.42,-254.4 407.75,-250.92 401.42,-250.32 402.42,-254.4"/>
</g>
<!-- src/generate.ts -->
<g id="node8" class="node">
<title>src/generate.ts</title>
<g id="a_node8"><a xlink:href="https://github.com/dragonman225/notablog/tree/master/src/generate.ts" xlink:title="generate.ts">
<path fill="#ddfeff" stroke="black" d="M145,-229.56C145,-229.56 89,-229.56 89,-229.56 86,-229.56 83,-226.56 83,-223.56 83,-223.56 83,-217.56 83,-217.56 83,-214.56 86,-211.56 89,-211.56 89,-211.56 145,-211.56 145,-211.56 148,-211.56 151,-214.56 151,-217.56 151,-217.56 151,-223.56 151,-223.56 151,-226.56 148,-229.56 145,-229.56"/>
<text text-anchor="middle" x="117" y="-218.36" font-family="Helvetica,sans-Serif" font-size="9.00">generate.ts</text>
</a>
</g>
</g>
<!-- src/generate.ts&#45;&gt;fs -->
<g id="edge15" class="edge">
<title>src/generate.ts&#45;&gt;fs</title>
<path fill="none" stroke="#000000" stroke-dasharray="5,2" stroke-opacity="0.200000" d="M118.62,-211.33C120.74,-185.94 129.61,-113.88 164,-67.56 195.15,-25.6 211.96,-17.65 262,-2.56 275.4,1.48 494.58,-0.4 500,-3.56 516.12,-12.96 525.29,-33.19 529.95,-47.33"/>
<polygon fill="#000000" fill-opacity="0.200000" stroke="#000000" stroke-opacity="0.200000" points="528.02,-48.21 531.78,-53.34 532.04,-46.99 528.02,-48.21"/>
</g>
<!-- src/generate.ts&#45;&gt;path -->
<g id="edge16" class="edge">
<title>src/generate.ts&#45;&gt;path</title>
<path fill="none" stroke="#000000" stroke-dasharray="5,2" stroke-opacity="0.200000" d="M132.12,-229.74C138.82,-234.81 146.36,-241.67 151,-249.56 164.83,-273.08 151.05,-285.54 164,-309.56 193.52,-364.34 207.51,-379.52 262,-409.56 355.14,-460.91 397.38,-462.51 500,-434.56 505.82,-432.98 511.67,-430.11 516.83,-427.04"/>
<polygon fill="#000000" fill-opacity="0.200000" stroke="#000000" stroke-opacity="0.200000" points="518.19,-428.66 522.12,-423.67 515.93,-425.12 518.19,-428.66"/>
</g>
<!-- src/generate.ts&#45;&gt;src/cache.ts -->
<g id="edge7" class="edge">
<title>src/generate.ts&#45;&gt;src/cache.ts</title>
<path fill="none" stroke="#000000" stroke-width="2" stroke-opacity="0.200000" d="M130.83,-229.64C137.52,-234.87 145.43,-241.92 151,-249.56 159.55,-261.31 153.41,-269.61 164,-279.56 166.58,-281.99 169.59,-284.03 172.77,-285.74"/>
<polygon fill="#000000" fill-opacity="0.200000" stroke="#000000" stroke-width="2" stroke-opacity="0.200000" points="172.34,-287.85 178.66,-288.48 174.11,-284.05 172.34,-287.85"/>
</g>
<!-- src/generate.ts&#45;&gt;src/utils.ts -->
<g id="edge14" class="edge">
<title>src/generate.ts&#45;&gt;src/utils.ts</title>
<path fill="none" stroke="#000000" stroke-width="2" stroke-opacity="0.200000" d="M143.06,-229.7C149.79,-231.89 157.11,-234.03 164,-235.56 253.53,-255.44 278.33,-250.42 370,-247.56 380.32,-247.24 391.56,-246.63 401.71,-245.97"/>
<polygon fill="#000000" fill-opacity="0.200000" stroke="#000000" stroke-width="2" stroke-opacity="0.200000" points="402.01,-248.06 407.86,-245.56 401.74,-243.87 402.01,-248.06"/>
</g>
<!-- src/generate.ts&#45;&gt;src/config.ts -->
<g id="edge8" class="edge">
<title>src/generate.ts&#45;&gt;src/config.ts</title>
<path fill="none" stroke="#000000" stroke-width="2" stroke-opacity="0.200000" d="M133.12,-229.64C141.99,-234.83 153.49,-241.33 164,-246.56 168.35,-248.73 173.02,-250.9 177.61,-252.94"/>
<polygon fill="#000000" fill-opacity="0.200000" stroke="#000000" stroke-width="2" stroke-opacity="0.200000" points="177,-254.97 183.33,-255.46 178.68,-251.12 177,-254.97"/>
</g>
<!-- src/notion&#45;utils.ts -->
<g id="node9" class="node">
<title>src/notion&#45;utils.ts</title>
<g id="a_node9"><a xlink:href="https://github.com/dragonman225/notablog/tree/master/src/notion-utils.ts" xlink:title="notion&#45;utils.ts">
<path fill="#ddfeff" stroke="black" d="M349,-169.56C349,-169.56 283,-169.56 283,-169.56 280,-169.56 277,-166.56 277,-163.56 277,-163.56 277,-157.56 277,-157.56 277,-154.56 280,-151.56 283,-151.56 283,-151.56 349,-151.56 349,-151.56 352,-151.56 355,-154.56 355,-157.56 355,-157.56 355,-163.56 355,-163.56 355,-166.56 352,-169.56 349,-169.56"/>
<text text-anchor="middle" x="316" y="-158.36" font-family="Helvetica,sans-Serif" font-size="9.00">notion&#45;utils.ts</text>
</a>
</g>
</g>
<!-- src/generate.ts&#45;&gt;src/notion&#45;utils.ts -->
<g id="edge9" class="edge">
<title>src/generate.ts&#45;&gt;src/notion&#45;utils.ts</title>
<path fill="none" stroke="#000000" stroke-width="2" stroke-opacity="0.200000" d="M120.39,-211.53C125.33,-194.91 138.41,-159.89 164,-145.56 196.96,-127.11 211.46,-141.35 249,-145.56 257.82,-146.55 267.19,-148.26 276.01,-150.19"/>
<polygon fill="#000000" fill-opacity="0.200000" stroke="#000000" stroke-width="2" stroke-opacity="0.200000" points="275.69,-152.27 282.01,-151.54 276.62,-148.17 275.69,-152.27"/>
</g>
<!-- src/parse&#45;table.ts -->
<g id="node10" class="node">
<title>src/parse&#45;table.ts</title>
<g id="a_node10"><a xlink:href="https://github.com/dragonman225/notablog/tree/master/src/parse-table.ts" xlink:title="parse&#45;table.ts">
<path fill="#ddfeff" stroke="black" d="M239.5,-125.56C239.5,-125.56 173.5,-125.56 173.5,-125.56 170.5,-125.56 167.5,-122.56 167.5,-119.56 167.5,-119.56 167.5,-113.56 167.5,-113.56 167.5,-110.56 170.5,-107.56 173.5,-107.56 173.5,-107.56 239.5,-107.56 239.5,-107.56 242.5,-107.56 245.5,-110.56 245.5,-113.56 245.5,-113.56 245.5,-119.56 245.5,-119.56 245.5,-122.56 242.5,-125.56 239.5,-125.56"/>
<text text-anchor="middle" x="206.5" y="-114.36" font-family="Helvetica,sans-Serif" font-size="9.00">parse&#45;table.ts</text>
</a>
</g>
</g>
<!-- src/generate.ts&#45;&gt;src/parse&#45;table.ts -->
<g id="edge10" class="edge">
<title>src/generate.ts&#45;&gt;src/parse&#45;table.ts</title>
<path fill="none" stroke="#000000" stroke-width="2" stroke-opacity="0.200000" d="M120.62,-211.52C126.03,-194.34 139.97,-156.7 164,-134.56 166.45,-132.3 169.24,-130.29 172.17,-128.52"/>
<polygon fill="#000000" fill-opacity="0.200000" stroke="#000000" stroke-width="2" stroke-opacity="0.200000" points="173.32,-130.29 177.58,-125.57 171.31,-126.6 173.32,-130.29"/>
</g>
<!-- src/render&#45;index.ts -->
<g id="node11" class="node">
<title>src/render&#45;index.ts</title>
<g id="a_node11"><a xlink:href="https://github.com/dragonman225/notablog/tree/master/src/render-index.ts" xlink:title="render&#45;index.ts">
<path fill="#ddfeff" stroke="black" d="M243,-169.56C243,-169.56 170,-169.56 170,-169.56 167,-169.56 164,-166.56 164,-163.56 164,-163.56 164,-157.56 164,-157.56 164,-154.56 167,-151.56 170,-151.56 170,-151.56 243,-151.56 243,-151.56 246,-151.56 249,-154.56 249,-157.56 249,-157.56 249,-163.56 249,-163.56 249,-166.56 246,-169.56 243,-169.56"/>
<text text-anchor="middle" x="206.5" y="-158.36" font-family="Helvetica,sans-Serif" font-size="9.00">render&#45;index.ts</text>
</a>
</g>
</g>
<!-- src/generate.ts&#45;&gt;src/render&#45;index.ts -->
<g id="edge11" class="edge">
<title>src/generate.ts&#45;&gt;src/render&#45;index.ts</title>
<path fill="none" stroke="#000000" stroke-width="2" stroke-opacity="0.200000" d="M125.23,-211.44C133.61,-201.42 148.29,-185.42 164,-175.56 165.86,-174.39 167.83,-173.3 169.85,-172.27"/>
<polygon fill="#000000" fill-opacity="0.200000" stroke="#000000" stroke-width="2" stroke-opacity="0.200000" points="170.75,-174.17 175.3,-169.73 168.98,-170.36 170.75,-174.17"/>
</g>
<!-- src/render&#45;post.ts -->
<g id="node12" class="node">
<title>src/render&#45;post.ts</title>
<g id="a_node12"><a xlink:href="https://github.com/dragonman225/notablog/tree/master/src/render-post.ts" xlink:title="render&#45;post.ts">
<path fill="#ddfeff" stroke="black" d="M240.5,-199.56C240.5,-199.56 172.5,-199.56 172.5,-199.56 169.5,-199.56 166.5,-196.56 166.5,-193.56 166.5,-193.56 166.5,-187.56 166.5,-187.56 166.5,-184.56 169.5,-181.56 172.5,-181.56 172.5,-181.56 240.5,-181.56 240.5,-181.56 243.5,-181.56 246.5,-184.56 246.5,-187.56 246.5,-187.56 246.5,-193.56 246.5,-193.56 246.5,-196.56 243.5,-199.56 240.5,-199.56"/>
<text text-anchor="middle" x="206.5" y="-188.36" font-family="Helvetica,sans-Serif" font-size="9.00">render&#45;post.ts</text>
</a>
</g>
</g>
<!-- src/generate.ts&#45;&gt;src/render&#45;post.ts -->
<g id="edge12" class="edge">
<title>src/generate.ts&#45;&gt;src/render&#45;post.ts</title>
<path fill="none" stroke="#000000" stroke-width="2" stroke-opacity="0.200000" d="M144.25,-211.56C153.34,-208.44 163.63,-204.91 173.15,-201.65"/>
<polygon fill="#000000" fill-opacity="0.200000" stroke="#000000" stroke-width="2" stroke-opacity="0.200000" points="173.97,-203.59 178.96,-199.66 172.61,-199.62 173.97,-203.59"/>
</g>
<!-- src/renderer.ts -->
<g id="node13" class="node">
<title>src/renderer.ts</title>
<g id="a_node13"><a xlink:href="https://github.com/dragonman225/notablog/tree/master/src/renderer.ts" xlink:title="renderer.ts">
<path fill="#ddfeff" stroke="black" d="M233.5,-229.56C233.5,-229.56 179.5,-229.56 179.5,-229.56 176.5,-229.56 173.5,-226.56 173.5,-223.56 173.5,-223.56 173.5,-217.56 173.5,-217.56 173.5,-214.56 176.5,-211.56 179.5,-211.56 179.5,-211.56 233.5,-211.56 233.5,-211.56 236.5,-211.56 239.5,-214.56 239.5,-217.56 239.5,-217.56 239.5,-223.56 239.5,-223.56 239.5,-226.56 236.5,-229.56 233.5,-229.56"/>
<text text-anchor="middle" x="206.5" y="-218.36" font-family="Helvetica,sans-Serif" font-size="9.00">renderer.ts</text>
</a>
</g>
</g>
<!-- src/generate.ts&#45;&gt;src/renderer.ts -->
<g id="edge13" class="edge">
<title>src/generate.ts&#45;&gt;src/renderer.ts</title>
<path fill="none" stroke="#000000" stroke-width="2" stroke-opacity="0.200000" d="M151.08,-220.56C156.3,-220.56 161.73,-220.56 167.06,-220.56"/>
<polygon fill="#000000" fill-opacity="0.200000" stroke="#000000" stroke-width="2" stroke-opacity="0.200000" points="167.24,-222.66 173.24,-220.56 167.24,-218.46 167.24,-222.66"/>
</g>
<!-- src/parse&#45;table.ts&#45;&gt;src/notion&#45;utils.ts -->
<g id="edge22" class="edge">
<title>src/parse&#45;table.ts&#45;&gt;src/notion&#45;utils.ts</title>
<path fill="none" stroke="#000000" stroke-width="2" stroke-opacity="0.200000" d="M230.17,-125.7C236.36,-128.38 243.01,-131.44 249,-134.56 255.02,-137.7 255.86,-139.67 262,-142.56 267.34,-145.07 273.13,-147.41 278.86,-149.5"/>
<polygon fill="#000000" fill-opacity="0.200000" stroke="#000000" stroke-width="2" stroke-opacity="0.200000" points="278.19,-151.49 284.55,-151.52 279.59,-147.54 278.19,-151.49"/>
</g>
<!-- src/notion&#45;open&#45;api.ts -->
<g id="node16" class="node">
<title>src/notion&#45;open&#45;api.ts</title>
<g id="a_node16"><a xlink:href="https://github.com/dragonman225/notablog/tree/master/src/notion-open-api.ts" xlink:title="notion&#45;open&#45;api.ts">
<path fill="#ddfeff" stroke="black" d="M478.5,-207.56C478.5,-207.56 391.5,-207.56 391.5,-207.56 388.5,-207.56 385.5,-204.56 385.5,-201.56 385.5,-201.56 385.5,-195.56 385.5,-195.56 385.5,-192.56 388.5,-189.56 391.5,-189.56 391.5,-189.56 478.5,-189.56 478.5,-189.56 481.5,-189.56 484.5,-192.56 484.5,-195.56 484.5,-195.56 484.5,-201.56 484.5,-201.56 484.5,-204.56 481.5,-207.56 478.5,-207.56"/>
<text text-anchor="middle" x="435" y="-196.36" font-family="Helvetica,sans-Serif" font-size="9.00">notion&#45;open&#45;api.ts</text>
</a>
</g>
</g>
<!-- src/parse&#45;table.ts&#45;&gt;src/notion&#45;open&#45;api.ts -->
<g id="edge21" class="edge">
<title>src/parse&#45;table.ts&#45;&gt;src/notion&#45;open&#45;api.ts</title>
<path fill="none" stroke="#000000" stroke-width="2" stroke-opacity="0.200000" d="M237.3,-125.57C245.27,-127.76 253.92,-129.93 262,-131.56 285.72,-136.34 352.27,-129.09 370,-145.56 382.96,-157.61 365.76,-171.79 378,-184.56 378.67,-185.26 379.37,-185.93 380.1,-186.57"/>
<polygon fill="#000000" fill-opacity="0.200000" stroke="#000000" stroke-width="2" stroke-opacity="0.200000" points="379.16,-188.48 385.25,-190.33 381.64,-185.09 379.16,-188.48"/>
</g>
<!-- src/open&#45;api&#45;helper.tsx -->
<g id="node18" class="node">
<title>src/open&#45;api&#45;helper.tsx</title>
<g id="a_node18"><a xlink:href="https://github.com/dragonman225/notablog/tree/master/src/open-api-helper.tsx" xlink:title="open&#45;api&#45;helper.tsx">
<path fill="#bbfeff" stroke="black" d="M361.5,-125.56C361.5,-125.56 270.5,-125.56 270.5,-125.56 267.5,-125.56 264.5,-122.56 264.5,-119.56 264.5,-119.56 264.5,-113.56 264.5,-113.56 264.5,-110.56 267.5,-107.56 270.5,-107.56 270.5,-107.56 361.5,-107.56 361.5,-107.56 364.5,-107.56 367.5,-110.56 367.5,-113.56 367.5,-113.56 367.5,-119.56 367.5,-119.56 367.5,-122.56 364.5,-125.56 361.5,-125.56"/>
<text text-anchor="middle" x="316" y="-114.36" font-family="Helvetica,sans-Serif" font-size="9.00">open&#45;api&#45;helper.tsx</text>
</a>
</g>
</g>
<!-- src/parse&#45;table.ts&#45;&gt;src/open&#45;api&#45;helper.tsx -->
<g id="edge23" class="edge">
<title>src/parse&#45;table.ts&#45;&gt;src/open&#45;api&#45;helper.tsx</title>
<path fill="none" stroke="#000000" stroke-width="2" stroke-opacity="0.200000" d="M245.7,-116.56C249.76,-116.56 253.94,-116.56 258.15,-116.56"/>
<polygon fill="#000000" fill-opacity="0.200000" stroke="#000000" stroke-width="2" stroke-opacity="0.200000" points="258.32,-118.66 264.32,-116.56 258.32,-114.46 258.32,-118.66"/>
</g>
<!-- src/render&#45;index.ts&#45;&gt;fs -->
<g id="edge29" class="edge">
<title>src/render&#45;index.ts&#45;&gt;fs</title>
<path fill="none" stroke="#000000" stroke-dasharray="5,2" stroke-opacity="0.200000" d="M227.3,-151.36C235.34,-146.6 243.92,-139.99 249,-131.56 261.13,-111.42 244.38,-42.13 262,-26.56 301.63,8.46 451.43,-5.63 500,-26.56 510.26,-30.98 518.87,-40.2 524.86,-48.2"/>
<polygon fill="#000000" fill-opacity="0.200000" stroke="#000000" stroke-opacity="0.200000" points="523.4,-49.77 528.57,-53.47 526.83,-47.35 523.4,-49.77"/>
</g>
<!-- src/render&#45;index.ts&#45;&gt;path -->
<g id="edge30" class="edge">
<title>src/render&#45;index.ts&#45;&gt;path</title>
<path fill="none" stroke="#000000" stroke-dasharray="5,2" stroke-opacity="0.200000" d="M242.72,-169.6C245.11,-171.27 247.25,-173.23 249,-175.56 275.76,-211.17 231.75,-342.87 262,-375.56 323.74,-442.28 444.28,-431.28 501.87,-421.3"/>
<polygon fill="#000000" fill-opacity="0.200000" stroke="#000000" stroke-opacity="0.200000" points="502.37,-423.34 507.91,-420.22 501.63,-419.21 502.37,-423.34"/>
</g>
<!-- src/render&#45;index.ts&#45;&gt;src/utils.ts -->
<g id="edge28" class="edge">
<title>src/render&#45;index.ts&#45;&gt;src/utils.ts</title>
<path fill="none" stroke="#000000" stroke-width="2" stroke-opacity="0.200000" d="M237,-169.59C245.05,-171.81 253.81,-173.99 262,-175.56 285.71,-180.11 351.4,-172.16 370,-187.56 379.31,-195.27 370.32,-204.23 378,-213.56 384.44,-221.39 393.48,-227.46 402.42,-232.03"/>
<polygon fill="#000000" fill-opacity="0.200000" stroke="#000000" stroke-width="2" stroke-opacity="0.200000" points="401.63,-233.98 407.94,-234.69 403.44,-230.2 401.63,-233.98"/>
</g>
<!-- src/render&#45;post.ts&#45;&gt;fs -->
<g id="edge33" class="edge">
<title>src/render&#45;post.ts&#45;&gt;fs</title>
<path fill="none" stroke="#000000" stroke-dasharray="5,2" stroke-opacity="0.200000" d="M242.55,-181.38C244.97,-179.75 247.17,-177.83 249,-175.56 276.3,-141.7 230.12,-108.15 262,-78.56 327.73,-17.55 445.29,-38.13 501.86,-52.92"/>
<polygon fill="#000000" fill-opacity="0.200000" stroke="#000000" stroke-opacity="0.200000" points="501.45,-54.98 507.79,-54.5 502.54,-50.92 501.45,-54.98"/>
</g>
<!-- src/render&#45;post.ts&#45;&gt;path -->
<g id="edge34" class="edge">
<title>src/render&#45;post.ts&#45;&gt;path</title>
<path fill="none" stroke="#000000" stroke-dasharray="5,2" stroke-opacity="0.200000" d="M242.69,-199.63C245.08,-201.28 247.24,-203.24 249,-205.56 271.93,-235.72 236.11,-347.9 262,-375.56 324.12,-441.93 444.47,-431.1 501.94,-421.23"/>
<polygon fill="#000000" fill-opacity="0.200000" stroke="#000000" stroke-opacity="0.200000" points="502.43,-423.28 507.97,-420.16 501.69,-419.14 502.43,-423.28"/>
</g>
<!-- src/render&#45;post.ts&#45;&gt;src/utils.ts -->
<g id="edge32" class="edge">
<title>src/render&#45;post.ts&#45;&gt;src/utils.ts</title>
<path fill="none" stroke="#000000" stroke-width="2" stroke-opacity="0.200000" d="M246.65,-190.06C280.25,-190.76 329.51,-194.49 370,-208.56 373.96,-209.94 374.37,-211.46 378,-213.56 388.71,-219.77 400.79,-226.3 410.98,-231.67"/>
<polygon fill="#000000" fill-opacity="0.200000" stroke="#000000" stroke-width="2" stroke-opacity="0.200000" points="410.14,-233.6 416.43,-234.53 412.09,-229.89 410.14,-233.6"/>
</g>
<!-- src/render&#45;post.ts&#45;&gt;src/notion&#45;utils.ts -->
<g id="edge31" class="edge">
<title>src/render&#45;post.ts&#45;&gt;src/notion&#45;utils.ts</title>
<path fill="none" stroke="#000000" stroke-width="2" stroke-opacity="0.200000" d="M239.75,-181.56C251.34,-178.33 264.52,-174.65 276.58,-171.28"/>
<polygon fill="#000000" fill-opacity="0.200000" stroke="#000000" stroke-width="2" stroke-opacity="0.200000" points="277.18,-173.29 282.4,-169.66 276.05,-169.25 277.18,-173.29"/>
</g>
<!-- src/renderer.ts&#45;&gt;src/utils.ts -->
<g id="edge36" class="edge">
<title>src/renderer.ts&#45;&gt;src/utils.ts</title>
<path fill="none" stroke="#000000" stroke-width="2" stroke-opacity="0.200000" d="M239.61,-216.03C272.64,-212.28 325.41,-208.85 370,-217.56 384.26,-220.35 399.36,-226.32 411.31,-231.84"/>
<polygon fill="#000000" fill-opacity="0.200000" stroke="#000000" stroke-width="2" stroke-opacity="0.200000" points="410.58,-233.82 416.91,-234.5 412.39,-230.03 410.58,-233.82"/>
</g>
<!-- src/template&#45;provider.ts -->
<g id="node19" class="node">
<title>src/template&#45;provider.ts</title>
<g id="a_node19"><a xlink:href="https://github.com/dragonman225/notablog/tree/master/src/template-provider.ts" xlink:title="template&#45;provider.ts">
<path fill="#ddfeff" stroke="black" d="M364,-241.56C364,-241.56 268,-241.56 268,-241.56 265,-241.56 262,-238.56 262,-235.56 262,-235.56 262,-229.56 262,-229.56 262,-226.56 265,-223.56 268,-223.56 268,-223.56 364,-223.56 364,-223.56 367,-223.56 370,-226.56 370,-229.56 370,-229.56 370,-235.56 370,-235.56 370,-238.56 367,-241.56 364,-241.56"/>
<text text-anchor="middle" x="316" y="-230.36" font-family="Helvetica,sans-Serif" font-size="9.00">template&#45;provider.ts</text>
</a>
</g>
</g>
<!-- src/renderer.ts&#45;&gt;src/template&#45;provider.ts -->
<g id="edge35" class="edge">
<title>src/renderer.ts&#45;&gt;src/template&#45;provider.ts</title>
<path fill="none" stroke="#000000" stroke-width="2" stroke-opacity="0.200000" d="M239.75,-224.16C244.73,-224.72 250.01,-225.31 255.36,-225.9"/>
<polygon fill="#000000" fill-opacity="0.200000" stroke="#000000" stroke-width="2" stroke-opacity="0.200000" points="255.47,-228.03 261.66,-226.61 255.93,-223.85 255.47,-228.03"/>
</g>
<!-- src/index.ts -->
<g id="node14" class="node">
<title>src/index.ts</title>
<g id="a_node14"><a xlink:href="https://github.com/dragonman225/notablog/tree/master/src/index.ts" xlink:title="index.ts">
<path fill="#ddfeff" stroke="black" d="M64,-251.56C64,-251.56 22,-251.56 22,-251.56 19,-251.56 16,-248.56 16,-245.56 16,-245.56 16,-239.56 16,-239.56 16,-236.56 19,-233.56 22,-233.56 22,-233.56 64,-233.56 64,-233.56 67,-233.56 70,-236.56 70,-239.56 70,-239.56 70,-245.56 70,-245.56 70,-248.56 67,-251.56 64,-251.56"/>
<text text-anchor="middle" x="43" y="-240.36" font-family="Helvetica,sans-Serif" font-size="9.00">index.ts</text>
</a>
</g>
</g>
<!-- src/index.ts&#45;&gt;src/generate.ts -->
<g id="edge17" class="edge">
<title>src/index.ts&#45;&gt;src/generate.ts</title>
<path fill="none" stroke="#000000" stroke-width="2" stroke-opacity="0.200000" d="M70.4,-234.49C73.61,-233.51 76.93,-232.5 80.25,-231.48"/>
<polygon fill="#000000" fill-opacity="0.200000" stroke="#000000" stroke-width="2" stroke-opacity="0.200000" points="81.07,-233.43 86.2,-229.67 79.84,-229.41 81.07,-233.43"/>
</g>
<!-- src/preview.ts -->
<g id="node15" class="node">
<title>src/preview.ts</title>
<g id="a_node15"><a xlink:href="https://github.com/dragonman225/notablog/tree/master/src/preview.ts" xlink:title="preview.ts">
<path fill="#ddfeff" stroke="black" d="M142,-273.56C142,-273.56 92,-273.56 92,-273.56 89,-273.56 86,-270.56 86,-267.56 86,-267.56 86,-261.56 86,-261.56 86,-258.56 89,-255.56 92,-255.56 92,-255.56 142,-255.56 142,-255.56 145,-255.56 148,-258.56 148,-261.56 148,-261.56 148,-267.56 148,-267.56 148,-270.56 145,-273.56 142,-273.56"/>
<text text-anchor="middle" x="117" y="-262.36" font-family="Helvetica,sans-Serif" font-size="9.00">preview.ts</text>
</a>
</g>
</g>
<!-- src/index.ts&#45;&gt;src/preview.ts -->
<g id="edge18" class="edge">
<title>src/index.ts&#45;&gt;src/preview.ts</title>
<path fill="none" stroke="#000000" stroke-width="2" stroke-opacity="0.200000" d="M70.4,-250.63C73.61,-251.61 76.93,-252.62 80.25,-253.64"/>
<polygon fill="#000000" fill-opacity="0.200000" stroke="#000000" stroke-width="2" stroke-opacity="0.200000" points="79.84,-255.71 86.2,-255.45 81.07,-251.69 79.84,-255.71"/>
</g>
<!-- src/preview.ts&#45;&gt;child_process -->
<g id="edge26" class="edge">
<title>src/preview.ts&#45;&gt;child_process</title>
<path fill="none" stroke="#000000" stroke-dasharray="5,2" stroke-opacity="0.200000" d="M132.87,-255.35C139.58,-250.37 146.91,-243.58 151,-235.56 165.09,-207.92 144.75,-120.89 164,-96.56 164.19,-96.32 164.38,-96.09 164.58,-95.86"/>
<polygon fill="#000000" fill-opacity="0.200000" stroke="#000000" stroke-opacity="0.200000" points="166.25,-97.18 169.25,-91.58 163.41,-94.08 166.25,-97.18"/>
</g>
<!-- src/preview.ts&#45;&gt;path -->
<g id="edge27" class="edge">
<title>src/preview.ts&#45;&gt;path</title>
<path fill="none" stroke="#000000" stroke-dasharray="5,2" stroke-opacity="0.200000" d="M118.51,-273.65C120.81,-310.79 131.53,-450.38 164,-476.56 280.25,-570.29 371.5,-552.65 500,-476.56 517.01,-466.49 526.07,-444.56 530.45,-429.68"/>
<polygon fill="#000000" fill-opacity="0.200000" stroke="#000000" stroke-opacity="0.200000" points="532.51,-430.13 532.06,-423.78 528.46,-429.02 532.51,-430.13"/>
</g>
<!-- src/preview.ts&#45;&gt;src/utils.ts -->
<g id="edge25" class="edge">
<title>src/preview.ts&#45;&gt;src/utils.ts</title>
<path fill="none" stroke="#000000" stroke-width="2" stroke-opacity="0.200000" d="M123.86,-273.57C131.56,-284.49 146.21,-302.31 164,-309.56 198.98,-323.83 211.5,-314.14 249,-309.56 304,-302.84 318.5,-299.99 370,-279.56 385.82,-273.28 402.56,-263.76 414.94,-256.08"/>
<polygon fill="#000000" fill-opacity="0.200000" stroke="#000000" stroke-width="2" stroke-opacity="0.200000" points="416.35,-257.68 420.31,-252.7 414.11,-254.12 416.35,-257.68"/>
</g>
<!-- src/preview.ts&#45;&gt;src/config.ts -->
<g id="edge24" class="edge">
<title>src/preview.ts&#45;&gt;src/config.ts</title>
<path fill="none" stroke="#000000" stroke-width="2" stroke-opacity="0.200000" d="M148.11,-264.56C155.76,-264.56 164.02,-264.56 171.84,-264.56"/>
<polygon fill="#000000" fill-opacity="0.200000" stroke="#000000" stroke-width="2" stroke-opacity="0.200000" points="172.27,-266.66 178.27,-264.56 172.27,-262.46 172.27,-266.66"/>
</g>
<!-- src/notion&#45;open/notion&#45;rich&#45;text.ts -->
<g id="node17" class="node">
<title>src/notion&#45;open/notion&#45;rich&#45;text.ts</title>
<g id="a_node17"><a xlink:href="https://github.com/dragonman225/notablog/tree/master/src/notion-open/notion-rich-text.ts" xlink:title="notion&#45;rich&#45;text.ts">
<path fill="#ddfeff" stroke="black" d="M478,-155.56C478,-155.56 392,-155.56 392,-155.56 389,-155.56 386,-152.56 386,-149.56 386,-149.56 386,-143.56 386,-143.56 386,-140.56 389,-137.56 392,-137.56 392,-137.56 478,-137.56 478,-137.56 481,-137.56 484,-140.56 484,-143.56 484,-143.56 484,-149.56 484,-149.56 484,-152.56 481,-155.56 478,-155.56"/>
<text text-anchor="middle" x="435" y="-144.36" font-family="Helvetica,sans-Serif" font-size="9.00">notion&#45;rich&#45;text.ts</text>
</a>
</g>
</g>
<!-- src/open&#45;api&#45;helper.tsx&#45;&gt;src/notion&#45;open&#45;api.ts -->
<g id="edge19" class="edge">
<title>src/open&#45;api&#45;helper.tsx&#45;&gt;src/notion&#45;open&#45;api.ts</title>
<path fill="none" stroke="#000000" stroke-width="2" stroke-opacity="0.200000" d="M358.89,-125.7C363.09,-128.02 366.93,-130.92 370,-134.56 384.52,-151.76 362.79,-167.98 378,-184.56 378.68,-185.3 379.39,-186 380.13,-186.67"/>
<polygon fill="#000000" fill-opacity="0.200000" stroke="#000000" stroke-width="2" stroke-opacity="0.200000" points="379.32,-188.69 385.39,-190.59 381.83,-185.32 379.32,-188.69"/>
</g>
<!-- src/open&#45;api&#45;helper.tsx&#45;&gt;src/notion&#45;open/notion&#45;rich&#45;text.ts -->
<g id="edge20" class="edge">
<title>src/open&#45;api&#45;helper.tsx&#45;&gt;src/notion&#45;open/notion&#45;rich&#45;text.ts</title>
<path fill="none" stroke="#000000" stroke-width="2" stroke-opacity="0.200000" d="M352.1,-125.56C364.83,-128.82 379.32,-132.54 392.54,-135.93"/>
<polygon fill="#000000" fill-opacity="0.200000" stroke="#000000" stroke-width="2" stroke-opacity="0.200000" points="392.18,-138.01 398.52,-137.46 393.23,-133.94 392.18,-138.01"/>
</g>
<!-- src/template&#45;provider.ts&#45;&gt;fs -->
<g id="edge38" class="edge">
<title>src/template&#45;provider.ts&#45;&gt;fs</title>
<path fill="none" stroke="#000000" stroke-dasharray="5,2" stroke-opacity="0.200000" d="M328.84,-223.48C341.24,-213.26 360.25,-195.46 370,-175.56 379.71,-155.74 362.9,-142.65 378,-126.56 416.06,-85.99 451.72,-126.19 500,-98.56 509.46,-93.15 517.88,-84.27 523.98,-76.69"/>
<polygon fill="#000000" fill-opacity="0.200000" stroke="#000000" stroke-opacity="0.200000" points="525.82,-77.74 527.82,-71.7 522.5,-75.18 525.82,-77.74"/>
</g>
<!-- src/template&#45;provider.ts&#45;&gt;path -->
<g id="edge39" class="edge">
<title>src/template&#45;provider.ts&#45;&gt;path</title>
<path fill="none" stroke="#000000" stroke-dasharray="5,2" stroke-opacity="0.200000" d="M329.48,-241.56C359.79,-263.63 439.28,-322.7 500,-378.56 507.61,-385.56 515.57,-393.93 521.88,-400.83"/>
<polygon fill="#000000" fill-opacity="0.200000" stroke="#000000" stroke-opacity="0.200000" points="520.37,-402.3 525.95,-405.34 523.49,-399.48 520.37,-402.3"/>
</g>
<!-- src/template&#45;provider.ts&#45;&gt;src/utils.ts -->
<g id="edge37" class="edge">
<title>src/template&#45;provider.ts&#45;&gt;src/utils.ts</title>
<path fill="none" stroke="#000000" stroke-width="2" stroke-opacity="0.200000" d="M370.02,-237.55C380.94,-238.57 392.11,-239.62 402,-240.55"/>
<polygon fill="#000000" fill-opacity="0.200000" stroke="#000000" stroke-width="2" stroke-opacity="0.200000" points="401.81,-242.64 407.98,-241.11 402.2,-238.46 401.81,-242.64"/>
</g>
</g>
</svg>
